<svg>
    <symbol id="vk" version="1.1" xmlns="http://www.w3.org/2000/svg" xmlns:xlink="http://www.w3.org/1999/xlink" viewBox="-153.6 -153.6 819.20 819.20" xml:space="preserve" fill="#ffffff">
        <g id="SVGRepo_bgCarrier" stroke-width="0">
            <rect x="-153.6" y="-153.6" width="819.20" height="819.20" rx="409.6" fill="#ffffff" strokewidth="0"></rect>
        </g>
        <g id="SVGRepo_tracerCarrier" stroke-linecap="round" stroke-linejoin="round"></g>
        <g id="SVGRepo_iconCarrier"> 
            <path style="fill:#2787f5;" d="M440.649,295.361c16.984,16.582,34.909,32.182,50.142,50.436 c6.729,8.112,13.099,16.482,17.973,25.896c6.906,13.382,0.651,28.108-11.348,28.907l-74.59-0.034 c-19.238,1.596-34.585-6.148-47.489-19.302c-10.327-10.519-19.891-21.714-29.821-32.588c-4.071-4.444-8.332-8.626-13.422-11.932 c-10.182-6.609-19.021-4.586-24.84,6.034c-5.926,10.802-7.271,22.762-7.853,34.8c-0.799,17.564-6.108,22.182-23.751,22.986 c-37.705,1.778-73.489-3.926-106.732-22.947c-29.308-16.768-52.034-40.441-71.816-67.24 C58.589,258.194,29.094,200.852,2.586,141.904c-5.967-13.281-1.603-20.41,13.051-20.663c24.333-0.473,48.663-0.439,73.025-0.034 c9.89,0.145,16.437,5.817,20.256,15.16c13.165,32.371,29.274,63.169,49.494,91.716c5.385,7.6,10.876,15.201,18.694,20.55 c8.65,5.923,15.236,3.96,19.305-5.676c2.582-6.11,3.713-12.691,4.295-19.234c1.928-22.513,2.182-44.988-1.199-67.422 c-2.076-14.001-9.962-23.065-23.933-25.714c-7.129-1.351-6.068-4.004-2.616-8.073c5.995-7.018,11.634-11.387,22.875-11.387h84.298 c13.271,2.619,16.218,8.581,18.035,21.934l0.072,93.637c-0.145,5.169,2.582,20.51,11.893,23.931 c7.452,2.436,12.364-3.526,16.836-8.251c20.183-21.421,34.588-46.737,47.457-72.951c5.711-11.527,10.622-23.497,15.381-35.458 c3.526-8.875,9.059-13.242,19.056-13.049l81.132,0.072c2.406,0,4.84,0.035,7.17,0.434c13.671,2.33,17.418,8.211,13.195,21.561 c-6.653,20.945-19.598,38.4-32.255,55.935c-13.53,18.721-28.001,36.802-41.418,55.634 C424.357,271.756,425.336,280.424,440.649,295.361L440.649,295.361z"></path> 
        </g>
    </symbol>
    <symbol id="vk-hover" version="1.1" xmlns="http://www.w3.org/2000/svg" xmlns:xlink="http://www.w3.org/1999/xlink" viewBox="-153.6 -153.6 819.20 819.20" xml:space="preserve" fill="#ffffff">
        <g id="SVGRepo_bgCarrier" stroke-width="0">
            <rect x="-153.6" y="-153.6" width="819.20" height="819.20" rx="409.6" fill="#2787f5" strokewidth="0"></rect>
        </g>
        <g id="SVGRepo_tracerCarrier" stroke-linecap="round" stroke-linejoin="round"></g>
        <g id="SVGRepo_iconCarrier"> 
        <path style="fill:#ffffff;" d="M440.649,295.361c16.984,16.582,34.909,32.182,50.142,50.436 c6.729,8.112,13.099,16.482,17.973,25.896c6.906,13.382,0.651,28.108-11.348,28.907l-74.59-0.034 c-19.238,1.596-34.585-6.148-47.489-19.302c-10.327-10.519-19.891-21.714-29.821-32.588c-4.071-4.444-8.332-8.626-13.422-11.932 c-10.182-6.609-19.021-4.586-24.84,6.034c-5.926,10.802-7.271,22.762-7.853,34.8c-0.799,17.564-6.108,22.182-23.751,22.986 c-37.705,1.778-73.489-3.926-106.732-22.947c-29.308-16.768-52.034-40.441-71.816-67.24 C58.589,258.194,29.094,200.852,2.586,141.904c-5.967-13.281-1.603-20.41,13.051-20.663c24.333-0.473,48.663-0.439,73.025-0.034 c9.89,0.145,16.437,5.817,20.256,15.16c13.165,32.371,29.274,63.169,49.494,91.716c5.385,7.6,10.876,15.201,18.694,20.55 c8.65,5.923,15.236,3.96,19.305-5.676c2.582-6.11,3.713-12.691,4.295-19.234c1.928-22.513,2.182-44.988-1.199-67.422 c-2.076-14.001-9.962-23.065-23.933-25.714c-7.129-1.351-6.068-4.004-2.616-8.073c5.995-7.018,11.634-11.387,22.875-11.387h84.298 c13.271,2.619,16.218,8.581,18.035,21.934l0.072,93.637c-0.145,5.169,2.582,20.51,11.893,23.931 c7.452,2.436,12.364-3.526,16.836-8.251c20.183-21.421,34.588-46.737,47.457-72.951c5.711-11.527,10.622-23.497,15.381-35.458 c3.526-8.875,9.059-13.242,19.056-13.049l81.132,0.072c2.406,0,4.84,0.035,7.17,0.434c13.671,2.33,17.418,8.211,13.195,21.561 c-6.653,20.945-19.598,38.4-32.255,55.935c-13.53,18.721-28.001,36.802-41.418,55.634 C424.357,271.756,425.336,280.424,440.649,295.361L440.649,295.361z"></path> 
        </g>
    </symbol>
    <symbol id="tg" viewBox="-14.4 -14.4 76.80 76.80" fill="none" xmlns="http://www.w3.org/2000/svg">
        <g id="SVGRepo_bgCarrier" stroke-width="0">
            <rect x="-14.4" y="-14.4" width="76.80" height="76.80" rx="38.4" fill="#ffffff" strokewidth="0"></rect>
        </g>
        <g id="SVGRepo_tracerCarrier" stroke-linecap="round" stroke-linejoin="round"></g>
        <g id="SVGRepo_iconCarrier"> 
            <path d="M41.4193 7.30899C41.4193 7.30899 45.3046 5.79399 44.9808 9.47328C44.8729 10.9883 43.9016 16.2908 43.1461 22.0262L40.5559 39.0159C40.5559 39.0159 40.3401 41.5048 38.3974 41.9377C36.4547 42.3705 33.5408 40.4227 33.0011 39.9898C32.5694 39.6652 24.9068 34.7955 22.2086 32.4148C21.4531 31.7655 20.5897 30.4669 22.3165 28.9519L33.6487 18.1305C34.9438 16.8319 36.2389 13.8019 30.8426 17.4812L15.7331 27.7616C15.7331 27.7616 14.0063 28.8437 10.7686 27.8698L3.75342 25.7055C3.75342 25.7055 1.16321 24.0823 5.58815 22.459C16.3807 17.3729 29.6555 12.1786 41.4193 7.30899Z" fill="#40B3E0"></path> 
        </g>
    </symbol>
    <symbol id="tg-hover" viewBox="-14.4 -14.4 76.80 76.80" fill="none" xmlns="http://www.w3.org/2000/svg">
        <g id="SVGRepo_bgCarrier" stroke-width="0">
            <rect x="-14.4" y="-14.4" width="76.80" height="76.80" rx="38.4" fill="#40B3E0" strokewidth="0"></rect>
        </g>
        <g id="SVGRepo_tracerCarrier" stroke-linecap="round" stroke-linejoin="round"></g>
        <g id="SVGRepo_iconCarrier"> 
            <path d="M41.4193 7.30899C41.4193 7.30899 45.3046 5.79399 44.9808 9.47328C44.8729 10.9883 43.9016 16.2908 43.1461 22.0262L40.5559 39.0159C40.5559 39.0159 40.3401 41.5048 38.3974 41.9377C36.4547 42.3705 33.5408 40.4227 33.0011 39.9898C32.5694 39.6652 24.9068 34.7955 22.2086 32.4148C21.4531 31.7655 20.5897 30.4669 22.3165 28.9519L33.6487 18.1305C34.9438 16.8319 36.2389 13.8019 30.8426 17.4812L15.7331 27.7616C15.7331 27.7616 14.0063 28.8437 10.7686 27.8698L3.75342 25.7055C3.75342 25.7055 1.16321 24.0823 5.58815 22.459C16.3807 17.3729 29.6555 12.1786 41.4193 7.30899Z" fill="#ffffff"></path> 
        </g>
    </symbol>
    <symbol id="wa" viewBox="-77.7 -77.7 414.40 414.40" version="1.1" xmlns="http://www.w3.org/2000/svg" xmlns:xlink="http://www.w3.org/1999/xlink" preserveAspectRatio="xMidYMid" fill="#ffffff" stroke="#ffffff" stroke-width="0.0025900000000000003">
        <g id="SVGRepo_bgCarrier" stroke-width="0" transform="translate(0,0), scale(1)">
            <rect x="-77.7" y="-77.7" width="414.40" height="414.40" rx="207.2" fill="#ffffff" strokewidth="0"></rect>
        </g>
            <g id="SVGRepo_tracerCarrier" stroke-linecap="round" stroke-linejoin="round"></g>
            <g id="SVGRepo_iconCarrier"> 
                <g> 
                    <path d="M67.6631045,221.823373 L71.8484512,223.916047 C89.2873956,234.379413 108.819013,239.262318 128.350631,239.262318 L128.350631,239.262318 C189.735716,239.262318 239.959876,189.038158 239.959876,127.653073 C239.959876,98.3556467 228.101393,69.7557778 207.17466,48.8290445 C186.247927,27.9023111 158.345616,16.0438289 128.350631,16.0438289 C66.9655467,16.0438289 16.7413867,66.2679889 17.4389445,128.350631 C17.4389445,149.277365 23.7169645,169.50654 34.1803311,186.945485 L36.9705622,191.130831 L25.8096378,232.28674 L67.6631045,221.823373 Z" fill="#00e67600E676"> </path> 
                    <path d="M219.033142,37.66812 C195.316178,13.2535978 162.530962,0 129.048189,0 C57.8972956,0 0.697557778,57.8972956 1.39511556,128.350631 C1.39511556,150.67248 7.67313556,172.296771 18.1365022,191.828389 L0,258.096378 L67.6631045,240.657433 C86.4971645,251.1208 107.423898,256.003705 128.350631,256.003705 L128.350631,256.003705 C198.803967,256.003705 256.003705,198.106409 256.003705,127.653073 C256.003705,93.4727423 242.750107,61.3850845 219.033142,37.66812 Z M129.048189,234.379413 L129.048189,234.379413 C110.214129,234.379413 91.380069,229.496509 75.3362401,219.7307 L71.1508934,217.638027 L30.6925422,228.101393 L41.1559089,188.3406 L38.3656778,184.155253 C7.67313556,134.628651 22.3218489,69.05822 72.5460089,38.3656778 C122.770169,7.67313556 187.643042,22.3218489 218.335585,72.5460089 C249.028127,122.770169 234.379413,187.643042 184.155253,218.335585 C168.111425,228.798951 148.579807,234.379413 129.048189,234.379413 Z M190.433273,156.9505 L182.760138,153.462711 C182.760138,153.462711 171.599213,148.579807 164.623636,145.092018 C163.926078,145.092018 163.22852,144.39446 162.530962,144.39446 C160.438289,144.39446 159.043173,145.092018 157.648058,145.789576 L157.648058,145.789576 C157.648058,145.789576 156.9505,146.487133 147.184691,157.648058 C146.487133,159.043173 145.092018,159.740731 143.696902,159.740731 L142.999345,159.740731 C142.301787,159.740731 140.906671,159.043173 140.209113,158.345616 L136.721325,156.9505 L136.721325,156.9505 C129.048189,153.462711 122.072611,149.277365 116.492149,143.696902 C115.097033,142.301787 113.00436,140.906671 111.609245,139.511556 C106.72634,134.628651 101.843436,129.048189 98.3556467,122.770169 L97.658089,121.375053 C96.9605312,120.677496 96.9605312,119.979938 96.2629734,118.584822 C96.2629734,117.189707 96.2629734,115.794591 96.9605312,115.097033 C96.9605312,115.097033 99.7507623,111.609245 101.843436,109.516571 C103.238551,108.121456 103.936109,106.028782 105.331225,104.633667 C106.72634,102.540993 107.423898,99.7507623 106.72634,97.658089 C106.028782,94.1703001 97.658089,75.3362401 95.5654156,71.1508934 C94.1703001,69.05822 92.7751845,68.3606623 90.6825112,67.6631045 L88.5898378,67.6631045 C87.1947223,67.6631045 85.1020489,67.6631045 83.0093756,67.6631045 C81.6142601,67.6631045 80.2191445,68.3606623 78.8240289,68.3606623 L78.1264712,69.05822 C76.7313556,69.7557778 75.3362401,71.1508934 73.9411245,71.8484512 C72.5460089,73.2435667 71.8484512,74.6386823 70.4533356,76.0337978 C65.5704312,82.3118178 62.7802,89.9849534 62.7802,97.658089 L62.7802,97.658089 C62.7802,103.238551 64.1753156,108.819013 66.2679889,113.701918 L66.9655467,115.794591 C73.2435667,129.048189 81.6142601,140.906671 92.7751845,151.370038 L95.5654156,154.160269 C97.658089,156.252942 99.7507623,157.648058 101.145878,159.740731 C115.794591,172.296771 132.535978,181.365022 151.370038,186.247927 C153.462711,186.945485 156.252942,186.945485 158.345616,187.643042 L158.345616,187.643042 C160.438289,187.643042 163.22852,187.643042 165.321193,187.643042 C168.808982,187.643042 172.994329,186.247927 175.78456,184.852811 C177.877233,183.457696 179.272349,183.457696 180.667465,182.06258 L182.06258,180.667465 C183.457696,179.272349 184.852811,178.574791 186.247927,177.179676 C187.643042,175.78456 189.038158,174.389445 189.735716,172.994329 C191.130831,170.204098 191.828389,166.716309 192.525947,163.22852 C192.525947,161.833405 192.525947,159.740731 192.525947,158.345616 C192.525947,158.345616 191.828389,157.648058 190.433273,156.9505 Z" fill="#00e676"> </path> 
                </g> 
            </g>
        </symbol>
    <symbol id="wa-hover" viewBox="-77.7 -77.7 414.40 414.40" version="1.1" xmlns="http://www.w3.org/2000/svg" xmlns:xlink="http://www.w3.org/1999/xlink" preserveAspectRatio="xMidYMid" fill="#000000">
        <g id="SVGRepo_bgCarrier" stroke-width="0">
            <rect x="-77.7" y="-77.7" width="414.40" height="414.40" rx="207.2" fill="#00e676" strokewidth="0"></rect>
        </g>
        <g id="SVGRepo_tracerCarrier" stroke-linecap="round" stroke-linejoin="round"></g>
        <g id="SVGRepo_iconCarrier"> 
            <g> 
                <path d="M67.6631045,221.823373 L71.8484512,223.916047 C89.2873956,234.379413 108.819013,239.262318 128.350631,239.262318 L128.350631,239.262318 C189.735716,239.262318 239.959876,189.038158 239.959876,127.653073 C239.959876,98.3556467 228.101393,69.7557778 207.17466,48.8290445 C186.247927,27.9023111 158.345616,16.0438289 128.350631,16.0438289 C66.9655467,16.0438289 16.7413867,66.2679889 17.4389445,128.350631 C17.4389445,149.277365 23.7169645,169.50654 34.1803311,186.945485 L36.9705622,191.130831 L25.8096378,232.28674 L67.6631045,221.823373 Z" fill="#00E676"> </path> 
                <path d="M219.033142,37.66812 C195.316178,13.2535978 162.530962,0 129.048189,0 C57.8972956,0 0.697557778,57.8972956 1.39511556,128.350631 C1.39511556,150.67248 7.67313556,172.296771 18.1365022,191.828389 L0,258.096378 L67.6631045,240.657433 C86.4971645,251.1208 107.423898,256.003705 128.350631,256.003705 L128.350631,256.003705 C198.803967,256.003705 256.003705,198.106409 256.003705,127.653073 C256.003705,93.4727423 242.750107,61.3850845 219.033142,37.66812 Z M129.048189,234.379413 L129.048189,234.379413 C110.214129,234.379413 91.380069,229.496509 75.3362401,219.7307 L71.1508934,217.638027 L30.6925422,228.101393 L41.1559089,188.3406 L38.3656778,184.155253 C7.67313556,134.628651 22.3218489,69.05822 72.5460089,38.3656778 C122.770169,7.67313556 187.643042,22.3218489 218.335585,72.5460089 C249.028127,122.770169 234.379413,187.643042 184.155253,218.335585 C168.111425,228.798951 148.579807,234.379413 129.048189,234.379413 Z M190.433273,156.9505 L182.760138,153.462711 C182.760138,153.462711 171.599213,148.579807 164.623636,145.092018 C163.926078,145.092018 163.22852,144.39446 162.530962,144.39446 C160.438289,144.39446 159.043173,145.092018 157.648058,145.789576 L157.648058,145.789576 C157.648058,145.789576 156.9505,146.487133 147.184691,157.648058 C146.487133,159.043173 145.092018,159.740731 143.696902,159.740731 L142.999345,159.740731 C142.301787,159.740731 140.906671,159.043173 140.209113,158.345616 L136.721325,156.9505 L136.721325,156.9505 C129.048189,153.462711 122.072611,149.277365 116.492149,143.696902 C115.097033,142.301787 113.00436,140.906671 111.609245,139.511556 C106.72634,134.628651 101.843436,129.048189 98.3556467,122.770169 L97.658089,121.375053 C96.9605312,120.677496 96.9605312,119.979938 96.2629734,118.584822 C96.2629734,117.189707 96.2629734,115.794591 96.9605312,115.097033 C96.9605312,115.097033 99.7507623,111.609245 101.843436,109.516571 C103.238551,108.121456 103.936109,106.028782 105.331225,104.633667 C106.72634,102.540993 107.423898,99.7507623 106.72634,97.658089 C106.028782,94.1703001 97.658089,75.3362401 95.5654156,71.1508934 C94.1703001,69.05822 92.7751845,68.3606623 90.6825112,67.6631045 L88.5898378,67.6631045 C87.1947223,67.6631045 85.1020489,67.6631045 83.0093756,67.6631045 C81.6142601,67.6631045 80.2191445,68.3606623 78.8240289,68.3606623 L78.1264712,69.05822 C76.7313556,69.7557778 75.3362401,71.1508934 73.9411245,71.8484512 C72.5460089,73.2435667 71.8484512,74.6386823 70.4533356,76.0337978 C65.5704312,82.3118178 62.7802,89.9849534 62.7802,97.658089 L62.7802,97.658089 C62.7802,103.238551 64.1753156,108.819013 66.2679889,113.701918 L66.9655467,115.794591 C73.2435667,129.048189 81.6142601,140.906671 92.7751845,151.370038 L95.5654156,154.160269 C97.658089,156.252942 99.7507623,157.648058 101.145878,159.740731 C115.794591,172.296771 132.535978,181.365022 151.370038,186.247927 C153.462711,186.945485 156.252942,186.945485 158.345616,187.643042 L158.345616,187.643042 C160.438289,187.643042 163.22852,187.643042 165.321193,187.643042 C168.808982,187.643042 172.994329,186.247927 175.78456,184.852811 C177.877233,183.457696 179.272349,183.457696 180.667465,182.06258 L182.06258,180.667465 C183.457696,179.272349 184.852811,178.574791 186.247927,177.179676 C187.643042,175.78456 189.038158,174.389445 189.735716,172.994329 C191.130831,170.204098 191.828389,166.716309 192.525947,163.22852 C192.525947,161.833405 192.525947,159.740731 192.525947,158.345616 C192.525947,158.345616 191.828389,157.648058 190.433273,156.9505 Z" fill="#FFFFFF"> </path> 
            </g> 
        </g>
    </symbol>
    <symbol id="website" fill="rgb(65, 234, 255)" version="1.1" xmlns="http://www.w3.org/2000/svg" xmlns:xlink="http://www.w3.org/1999/xlink" viewBox="0 0 100 100" enable-background="new 0 0 100 100" xml:space="preserve">
        <g id="SVGRepo_bgCarrier" stroke-width="0"></g>
        <g id="SVGRepo_tracerCarrier" stroke-linecap="round" stroke-linejoin="round"></g>
        <g id="SVGRepo_iconCarrier"> 
            <g> 
                <path d="M95.5,24.78c0-4.573-3.707-8.28-8.279-8.28H13.779c-4.573,0-8.279,3.707-8.279,8.28V76.22c0,4.573,3.707,8.28,8.279,8.28 h73.441c4.572,0,8.279-3.707,8.279-8.28V24.78z M14.279,20.5h73.441c2.359,0,3.779,2.301,3.779,4.661V32.5h-82v-7.339 C9.5,22.801,11.919,20.5,14.279,20.5z M87.721,80.5H14.279c-2.36,0-4.779-1.539-4.779-3.899V36.5h82v40.101 C91.5,78.961,90.08,80.5,87.721,80.5z"></path> 
                <circle cx="15.948" cy="27.214" r="3.47"></circle> 
                <circle cx="25.317" cy="27.214" r="3.47"></circle> 
                <circle cx="34.687" cy="27.214" r="3.47"></circle> 
            </g> 
        </g>
    </symbol>
    <symbol id="aim" viewBox="0 0 24 24" fill="none" xmlns="http://www.w3.org/2000/svg">
        <g id="SVGRepo_bgCarrier" stroke-width="0"></g>
        <g id="SVGRepo_tracerCarrier" stroke-linecap="round" stroke-linejoin="round"></g>
        <g id="SVGRepo_iconCarrier"> 
            <path d="M22 12H18M6 12H2M12 6V2M12 22V18M20 12C20 16.4183 16.4183 20 12 20C7.58172 20 4 16.4183 4 12C4 7.58172 7.58172 4 12 4C16.4183 4 20 7.58172 20 12Z" stroke="rgb(207, 110, 224)" stroke-width="1.2" stroke-linecap="round" stroke-linejoin="round"></path>
        </g>
    </symbol>
    <symbol id="person" viewBox="0 0 48 48" version="1.1" xmlns="http://www.w3.org/2000/svg" xmlns:xlink="http://www.w3.org/1999/xlink" fill="#000000">
        <g id="SVGRepo_bgCarrier" stroke-width="0"></g>
        <g id="SVGRepo_tracerCarrier" stroke-linecap="round" stroke-linejoin="round"></g>
        <g id="SVGRepo_iconCarrier">
            <g id="ðŸ”-System-Icons" stroke="none" stroke-width="1" fill="none" fill-rule="evenodd"> 
                <g id="ic_fluent_person_48_regular" fill="rgb(66, 166, 255)" fill-rule="nonzero"> 
                    <path d="M35.7502,28 C38.0276853,28 39.8876578,29.7909151 39.9950978,32.0427546 L40,32.2487 L40,33 C40,36.7555 38.0583,39.5669 35.0798,41.3802 C32.1509,43.1633 28.2139,44 24,44 C19.7861,44 15.8491,43.1633 12.9202,41.3802 C10.0319285,39.6218485 8.11862909,36.9249713 8.00532378,33.3388068 L8,33 L8,32.2489 C8,29.9703471 9.79294995,28.1122272 12.0440313,28.0048972 L12.2499,28 L35.7502,28 Z M35.7502,30.5 L12.2499,30.5 C11.331345,30.5 10.5787597,31.2066575 10.5057976,32.1054618 L10.5,32.2489 L10.5,33 C10.5,35.7444 11.8602,37.8081 14.2202,39.2448 C16.6297,40.7117 20.0677,41.5 24,41.5 C27.9323,41.5 31.3703,40.7117 33.7798,39.2448 C36.0555143,37.8594107 37.4015676,35.8910074 37.4948116,33.2914406 L37.5,33 L37.5,32.2488 C37.5,31.331195 36.7934328,30.5787475 35.8937801,30.5057968 L35.7502,30.5 Z M24,4 C29.5228,4 34,8.47715 34,14 C34,19.5228 29.5228,24 24,24 C18.4772,24 14,19.5228 14,14 C14,8.47715 18.4772,4 24,4 Z M24,6.5 C19.8579,6.5 16.5,9.85786 16.5,14 C16.5,18.1421 19.8579,21.5 24,21.5 C28.1421,21.5 31.5,18.1421 31.5,14 C31.5,9.85786 28.1421,6.5 24,6.5 Z" id="ðŸŽ¨-Color"> </path> 
                </g> 
            </g> 
        </g>
    </symbol>
    <symbol id="moneybag" fill="rgb(66, 166, 255)" version="1.1" xmlns="http://www.w3.org/2000/svg" xmlns:xlink="http://www.w3.org/1999/xlink" viewBox="-51.2 -51.2 614.40 614.40" xml:space="preserve">
        <g id="SVGRepo_bgCarrier" stroke-width="0">
            <rect x="-51.2" y="-51.2" width="614.40" height="614.40" rx="307.2" fill="rgba(66, 166, 255, 0.2)" strokewidth="0"></rect>
        </g>
        <g id="SVGRepo_tracerCarrier" stroke-linecap="round" stroke-linejoin="round"></g>
        <g id="SVGRepo_iconCarrier"> 
            <g> 
                <g> 
                    <path d="M304.261,141.953c-3.048-3.555-6.004-7.003-8.837-10.331c6.829-4.495,11.348-12.224,11.348-20.992 c0-10.246-6.17-19.074-14.987-22.977l23.2-77.333c0.728-2.427,0.266-5.056-1.247-7.089C312.226,1.198,309.841,0,307.307,0 c-8.844,0-13.72,3.248-17.282,5.62c-2.837,1.89-4.401,2.931-8.394,2.931c-3.993,0-5.556-1.041-8.394-2.931 C269.677,3.248,264.8,0,255.955,0c-8.838,0-13.71,3.25-17.266,5.623c-2.829,1.888-4.388,2.928-8.368,2.928 c-3.977,0-5.536-1.04-8.364-2.927C218.401,3.25,213.53,0,204.693,0c-2.534,0-4.919,1.198-6.432,3.231 c-1.514,2.033-1.975,4.661-1.247,7.089l23.2,77.333c-8.817,3.903-14.987,12.731-14.987,22.977c0,8.768,4.519,16.497,11.347,20.992 c-2.833,3.327-5.788,6.776-8.837,10.331C162.472,194.755,94.063,274.549,94.063,350.063C94.063,439.355,166.707,512,256,512 s161.937-72.645,161.937-161.937C417.937,274.549,349.528,194.755,304.261,141.953z M217.09,21.442 c3.16,1.679,7.303,3.143,13.231,3.143c8.838,0,13.71-3.25,17.267-5.623c2.829-1.889,4.388-2.928,8.368-2.928 c3.993,0,5.556,1.041,8.394,2.931c3.56,2.372,8.438,5.62,17.282,5.62c5.959,0,10.117-1.474,13.284-3.162l-19.227,64.089h-11.672 V59.324c0-4.427-3.589-8.017-8.017-8.017c-4.427,0-8.017,3.589-8.017,8.017v26.188h-11.672L217.09,21.442z M290.739,110.63 c0,5.01-4.076,9.086-9.086,9.086h-0.037c-0.004,0-0.007,0-0.011,0h-51.259c-5.01,0-9.086-4.076-9.086-9.086 s4.076-9.086,9.086-9.086h51.281c0.01,0,0.019,0.002,0.029,0.002c0.005,0,0.01-0.001,0.015-0.001 C286.673,101.556,290.739,105.626,290.739,110.63z M256,495.967c-80.452,0-145.904-65.452-145.904-145.904 c0-69.582,66.085-146.666,109.815-197.674c5.02-5.855,9.779-11.414,14.174-16.64h13.899v9.086c0,4.427,3.589,8.017,8.017,8.017 c4.427,0,8.017-3.589,8.017-8.017v-9.086h13.899c4.393,5.226,9.154,10.785,14.174,16.64 c43.73,51.008,109.815,128.092,109.815,197.674C401.904,430.515,336.452,495.967,256,495.967z"></path> 
                </g> 
            </g> 
            <g> 
                <g> 
                    <path d="M281.119,337.269v-59.955c10.467,4.192,18.171,10.895,18.171,19.037c0,4.427,3.589,8.017,8.017,8.017 s8.017-3.589,8.017-8.017c0-16.264-13.836-29.953-34.205-36.192v-12.71c0-4.427-3.589-8.017-8.017-8.017s-8.017,3.589-8.017,8.017 v9.531c-2.957-0.293-5.989-0.446-9.086-0.446c-3.097,0-6.129,0.153-9.086,0.446v-9.531c0-4.427-3.589-8.017-8.017-8.017 s-8.017,3.589-8.017,8.017v12.71c-20.369,6.239-34.205,19.927-34.205,36.192c0,21.524,14.564,32.842,34.205,40.852v59.955 c-10.467-4.192-18.171-10.895-18.171-19.037c0-4.427-3.589-8.017-8.017-8.017s-8.017,3.589-8.017,8.017 c0,16.264,13.836,29.953,34.205,36.192v12.71c0,4.427,3.589,8.017,8.017,8.017s8.017-3.589,8.017-8.017v-9.531 c2.957,0.293,5.989,0.446,9.086,0.446c3.097,0,6.129-0.153,9.086-0.446v9.531c0,4.427,3.589,8.017,8.017,8.017 s8.017-3.589,8.017-8.017v-12.71c20.369-6.239,34.205-19.927,34.205-36.192C315.324,356.597,300.76,345.279,281.119,337.269z M230.881,319.614c-13.305-6.477-18.171-13.359-18.171-23.263c0-8.142,7.705-14.845,18.171-19.037V319.614z M265.086,401.285 c-3.026,0.403-6.081,0.619-9.086,0.619c-3.005,0-6.06-0.216-9.086-0.619v-58.429c2.248,0.703,4.521,1.391,6.816,2.068 c4.114,1.214,7.886,2.399,11.355,3.568V401.285z M265.086,331.616c-2.248-0.703-4.521-1.391-6.816-2.068 c-4.114-1.214-7.886-2.399-11.355-3.568v-52.793c3.026-0.403,6.081-0.619,9.086-0.619c3.005,0,6.06,0.216,9.086,0.619V331.616z M281.119,397.158v-42.3c13.305,6.478,18.171,13.359,18.171,23.263C299.29,386.263,291.586,392.966,281.119,397.158z"></path> 
                </g> 
            </g> 
        </g>
    </symbol>
    <symbol id="first" fill="rgb(66, 166, 255)" viewBox="-6.4 -6.4 76.80 76.80" style="fill-rule:evenodd;clip-rule:evenodd;stroke-linejoin:round;stroke-miterlimit:2;" version="1.1" xml:space="preserve" xmlns="http://www.w3.org/2000/svg" xmlns:serif="http://www.serif.com/" xmlns:xlink="http://www.w3.org/1999/xlink" stroke="rgb(66, 166, 255)" stroke-width="0.00064">
        <g id="SVGRepo_bgCarrier" stroke-width="0">
            <rect x="-6.4" y="-6.4" width="76.80" height="76.80" rx="38.4" fill="rgba(66, 166, 255, 0.2)" strokewidth="0"></rect>
        </g>
        <g id="SVGRepo_tracerCarrier" stroke-linecap="round" stroke-linejoin="round"></g>
        <g id="SVGRepo_iconCarrier"> 
            <g id="ICON"> 
                <path d="M59,43l-54,0l-0,-9c-0,-0.552 -0.448,-1 -1,-1c-0.552,-0 -1,0.448 -1,1c-0,5.824 -0,11.07 -0,14c-0,0.796 0.316,1.559 0.879,2.121c0.562,0.563 1.325,0.879 2.121,0.879l4,0c0.552,0 1,-0.448 1,-1c-0,-0.552 -0.448,-1 -1,-1l-4,0c-0.265,-0 -0.52,-0.105 -0.707,-0.293c-0.188,-0.187 -0.293,-0.442 -0.293,-0.707l-0,-3l54,0l-0,3c0,0.265 -0.105,0.52 -0.293,0.707c-0.187,0.188 -0.442,0.293 -0.707,0.293l-44,0c-0.552,0 -1,0.448 -1,1c0,0.552 0.448,1 1,1l12.606,0c-0.16,2.682 -0.855,6.147 -3.417,8l-1.689,0c-0.552,-0 -1,0.448 -1,1c-0,0.552 0.448,1 1,1l21,0c0.552,-0 1,-0.448 1,-1c-0,-0.552 -0.448,-1 -1,-1l-1.689,0c-2.562,-1.854 -3.257,-5.318 -3.417,-8l20.606,0c0.796,-0 1.559,-0.316 2.121,-0.879c0.563,-0.562 0.879,-1.325 0.879,-2.121c-0,-6.028 -0,-23.972 -0,-30c0,-0.796 -0.316,-1.559 -0.879,-2.121c-0.562,-0.563 -1.325,-0.879 -2.121,-0.879c0,0 0,0 0,0c-2.552,0 -1.717,0 -8,0c-0.552,0 -1,0.448 -1,1c0,0.552 0.448,1 1,1l8,0c0.265,0 0.52,0.105 0.707,0.293c0.188,0.187 0.293,0.442 0.293,0.707l-0,25Zm-23.606,8l-6.788,0c-0.155,2.531 -0.785,5.68 -2.585,8l11.958,0c-1.8,-2.32 -2.43,-5.47 -2.585,-8Zm-14.394,-43l-4,0c-0.552,0 -1,0.448 -1,1l0,6c0,2.987 2.182,5.464 5.039,5.923c0.217,2.58 1.339,5.011 3.183,6.855c1.339,1.339 2.988,2.297 4.778,2.805l0,4.417c-2.761,0 -5,2.239 -5,5c-0,0.276 -0,0.46 -0,0.494c0,0.939 1,1.006 1,1.006l14,0l0.043,-0.005c0.191,-0.025 0.957,-0.179 0.957,-1.001l-0,-0.494c0,-2.761 -2.239,-5 -5,-5l0,0l0,-4.417c1.79,-0.508 3.439,-1.466 4.778,-2.805c1.844,-1.844 2.966,-4.275 3.183,-6.855c2.857,-0.459 5.039,-2.936 5.039,-5.923c0,-2.906 0,-6 0,-6c0,-0.552 -0.448,-1 -1,-1l-4,0l-0,-4c0,-0.552 -0.448,-1 -1,-1l-20,0c-0.552,0 -1,0.448 -1,1l-0,4Zm-14,29l0,2c0,0.552 0.448,1 1,1c0.552,-0 1,-0.448 1,-1l0,-2c0,-0.552 -0.448,-1 -1,-1c-0.552,-0 -1,0.448 -1,1Zm30.958,2.5l-11.916,0c0.237,-1.419 1.471,-2.5 2.958,-2.5c0,0 6,0 6,0c1.487,0 2.721,1.081 2.958,2.5Zm-6.958,-8.546l-0,4.046c-0,0 2,-0 2,-0l0,-4.046c-0.331,0.031 -0.665,0.046 -1,0.046c0,-0 0,-0 -0,0c-0.335,0 -0.669,-0.015 -1,-0.046Zm-22,3.046l0,-13c0,-0.552 -0.448,-1 -1,-1c-0.552,-0 -1,0.448 -1,1l0,13c0,0.552 0.448,1 1,1c0.552,-0 1,-0.448 1,-1Zm35.527,-11.729c-0,-0 -1.671,7.324 -7.756,8.756c-0.537,0.126 -0.871,0.665 -0.744,1.202c0.126,0.537 0.665,0.871 1.202,0.744c7.178,-1.688 9.244,-10.244 9.244,-10.244c0.127,-0.537 -0.207,-1.076 -0.744,-1.202c-0.537,-0.127 -1.076,0.207 -1.202,0.744Zm-27,0.458c-0,0 2.066,8.556 9.244,10.244c0.537,0.127 1.076,-0.207 1.202,-0.744c0.127,-0.537 -0.207,-1.076 -0.744,-1.202c-6.085,-1.432 -7.756,-8.756 -7.756,-8.756c-0.126,-0.537 -0.665,-0.871 -1.202,-0.744c-0.537,0.126 -0.871,0.665 -0.744,1.202Zm-3.527,-7.729l-8,0c-0.796,0 -1.559,0.316 -2.121,0.879c-0.563,0.562 -0.879,1.325 -0.879,2.121c-0,2.593 -0,6.893 -0,12c-0,0.552 0.448,1 1,1c0.552,0 1,-0.448 1,-1l-0,-12c-0,-0.265 0.105,-0.52 0.293,-0.707c0.187,-0.188 0.442,-0.293 0.707,-0.293c0,0 8,0 8,0c0.552,0 1,-0.448 1,-1c0,-0.552 -0.448,-1 -1,-1Zm18,14c-2.387,0 -4.676,-0.948 -6.364,-2.636c-1.688,-1.688 -2.636,-3.977 -2.636,-6.364l-0,-15l18,-0l-0,15c0,2.387 -0.948,4.676 -2.636,6.364c-1.688,1.688 -3.977,2.636 -6.364,2.636l0,0Zm0.825,-20.565c-0.187,-0.272 -0.495,-0.435 -0.825,-0.435c-0.33,0 -0.638,0.163 -0.825,0.435l-2.268,3.308c0,0 -3.847,1.135 -3.847,1.135c-0.317,0.093 -0.567,0.336 -0.668,0.65c-0.102,0.314 -0.043,0.657 0.158,0.919l2.446,3.179c0,-0 -0.11,4.01 -0.11,4.01c-0.009,0.329 0.145,0.642 0.412,0.836c0.267,0.194 0.612,0.244 0.923,0.133l3.779,-1.344c0,0 3.779,1.344 3.779,1.344c0.311,0.111 0.656,0.061 0.923,-0.133c0.267,-0.194 0.421,-0.507 0.412,-0.836l-0.11,-4.01c-0,-0 2.446,-3.179 2.446,-3.179c0.201,-0.262 0.26,-0.605 0.158,-0.919c-0.101,-0.314 -0.351,-0.557 -0.668,-0.65l-3.847,-1.135c-0,0 -2.268,-3.308 -2.268,-3.308Zm-0.825,2.334l1.644,2.398c0.13,0.19 0.321,0.329 0.542,0.394l2.789,0.822c0,0 -1.773,2.305 -1.773,2.305c-0.14,0.182 -0.213,0.407 -0.207,0.637l0.08,2.907c-0,0 -2.74,-0.974 -2.74,-0.974c-0.217,-0.077 -0.453,-0.077 -0.67,-0l-2.74,0.974c0,0 0.08,-2.907 0.08,-2.907c0.006,-0.23 -0.067,-0.455 -0.207,-0.637l-1.773,-2.305c-0,0 2.789,-0.822 2.789,-0.822c0.221,-0.065 0.412,-0.204 0.542,-0.394l1.644,-2.398Zm-11,8.105c-1.725,-0.444 -3,-2.01 -3,-3.874c0,0 0,-5 0,-5l3,-0l-0,8.874Zm22,-0l0,-8.874l3,0l0,5c-0,1.864 -1.275,3.43 -3,3.874Z"></path> 
            </g> 
        </g>
    </symbol>
    <svg id="alarm" fill="rgba(66, 166, 255)" version="1.1" xmlns="http://www.w3.org/2000/svg" xmlns:xlink="http://www.w3.org/1999/xlink" viewBox="-101 -101 606.00 606.00" xml:space="preserve" stroke="rgba(66, 166, 255)">
        <g id="SVGRepo_bgCarrier" stroke-width="0">
            <rect x="-101" y="-101" width="606.00" height="606.00" rx="303" fill="rgba(66, 166, 255, 0.2)" strokewidth="0"></rect>
        </g>
            <g id="SVGRepo_tracerCarrier" stroke-linecap="round" stroke-linejoin="round"></g>
            <g id="SVGRepo_iconCarrier"> 
            <g> 
                <g> 
                    <g> 
                        <path d="M203.8,324c-4.4,0-8,3.6-8,8v4c0,4.4,3.6,8,8,8c4.4,0,8-3.6,8-8v-4C211.8,327.6,208.2,324,203.8,324z"></path> 
                        <path d="M71.8,192h-4c-4.4,0-8,3.6-8,8c0,4.4,3.6,8,8,8h4c4.4,0,8-3.6,8-8C79.8,195.6,76.2,192,71.8,192z"></path>
                        <path d="M339.8,192h-4c-4.4,0-8,3.6-8,8c0,4.4,3.6,8,8,8h4c4.4,0,8-3.6,8-8C347.8,195.6,344.2,192,339.8,192z"></path> 
                        <path d="M113.4,98.4c-3.2-3.2-8-3.2-11.2,0c-3.2,3.2-3.2,8,0,11.2l2.8,2.8c1.6,1.6,3.6,2.4,5.6,2.4s4-0.8,5.6-2.4 c3.2-3.2,3.2-8,0-11.2L113.4,98.4z"></path> 
                        <path d="M302.6,287.6c-3.2-3.2-8-3.2-11.2,0s-3.2,8,0,11.2l2.8,2.8c1.6,1.6,3.6,2.4,5.6,2.4s4-0.8,5.6-2.4c3.2-3.2,3.2-8,0-11.2 L302.6,287.6z"></path> 
                        <path d="M105,287.6l-2.8,2.8c-3.2,3.2-3.2,8,0,11.2c1.6,1.6,3.6,2.4,5.6,2.4s4-0.8,5.6-2.4l2.8-2.8c3.2-3.2,3.2-8,0-11.2 S108.2,284.4,105,287.6z"></path> 
                        <path d="M294.2,98.4l-2.8,2.8c-3.2,3.2-3.2,8,0,11.2c1.6,1.6,3.6,2.4,5.6,2.4s4-0.8,5.6-2.4l2.8-2.8c3.2-3.2,3.2-8,0-11.2 C302.2,95.2,297.4,95.2,294.2,98.4z"></path> 
                        <path d="M203.8,68c-4.4,0-8,3.6-8,8v120.8L144.6,248c-3.2,3.2-3.2,8,0,11.2c1.6,1.6,3.6,2.4,5.6,2.4s4-0.8,5.6-2.4l53.6-53.6 c1.6-1.6,2.4-3.6,2.4-5.6V76C211.8,71.6,208.2,68,203.8,68z"></path> 
                        <path d="M387.8,200c0-22.4-4-44-11.6-64l3.2-3.2c12.8-12.8,20-29.6,20-47.6c0-18.4-7.2-35.6-20-48.4l-4.4-4.4l8.4-8.4 c3.2-3.2,3.2-8,0-11.2c-3.2-3.2-8-3.2-11.2,0l-8.4,8.4l-0.8-0.8c-12.8-12.8-29.6-20-47.6-20c0,0,0,0-0.4,0c-18,0-35.2,7.2-48,20 l-5.2,5.2c-18.8-6.4-38-9.6-58-9.6c-21.2,0-41.6,3.6-60.4,10.4L137,20C124.2,7.2,107,0,89,0c0,0,0,0-0.4,0C70.6,0,53.4,7.2,41,20 l-0.8,0.8l-8.4-8.4c-3.2-3.2-8-3.2-11.2,0c-3.2,3.2-3.2,8,0,11.2L29,32l-4.4,4.4c-13.2,13.2-20,30.4-20,48.4s7.2,35.2,20,47.6 l6,6C23.4,158,19.8,178.8,19.8,200c0,65.2,34,122.4,85.6,155.2l-35.2,35.2c-3.2,3.2-3.2,8,0,11.2c1.6,1.6,3.6,2.4,5.6,2.4 s4-0.8,5.6-2.4l38-38c25.2,13.2,54,20.4,84.4,20.4c30.4,0,58.8-7.6,84.4-20.4l38,38c1.6,1.6,3.6,2.4,5.6,2.4s4-0.8,5.6-2.4 c3.2-3.2,3.2-8,0-11.2l-35.2-35.2C353.8,322.4,387.8,265.2,387.8,200z M314.6,16c0,0,0,0,0.4,0c13.6,0,26.8,5.6,36.4,15.2 L368.2,48c10,10,15.6,23.2,15.2,37.2c0,13.2-5.2,25.2-14,34.8c-18.8-39.2-51.6-70.8-91.6-88.8C287.8,21.2,301,16,314.6,16z M20.2,85.2c0-14,5.2-27.2,15.2-37.2l16.8-16.8C61.8,21.2,74.6,16,88.6,16c0,0,0,0,0.4,0c14,0,26.8,5.6,36.8,15.2l1.6,1.6 c-40,18.4-72,50.4-90.4,90l-1.6-1.2C25.4,112,20.2,99.2,20.2,85.2z M203.8,368c-92.8,0-168-75.2-168-168S111,32,203.8,32 s168,75.2,168,168S296.6,368,203.8,368z"></path> 
                    </g> 
                </g> 
            </g> 
        </g>
    </svg>
</svg>